{"title":"Jolly The Real Playboy (2015) 720p WEB HD - AVC - AAC - Team IcT","uid":11997067,"size":1409596281,"categoryP":"video","categoryS":"movies","magnet":"?xt=urn:btih:a9cd0e43ac23d731b58c1da555843f27fef583e3&amp;dn=Jolly+The+Real+Playboy+%282015%29+720p+WEB+HD+-+AVC+-+AAC+-+Team+IcT&amp;tr=udp%3A%2F%2Ftracker.openbittorrent.com%3A80&amp;tr=udp%3A%2F%2Fopen.demonii.com%3A1337&amp;tr=udp%3A%2F%2Ftracker.coppersurfer.tk%3A6969&amp;tr=udp%3A%2F%2Fexodus.desync.com%3A6969","seeders":3,"leechers":3,"uploader":"SS132203","files":3,"time":1433689224,"description":"Jolly The Real Playboy (2015) 720p WEB HD - AVC - AAC - Team IcTv Exclusive\n &lt;a href=&quot;\nhttp://imgsparrow.co/image/47&quot; rel=&quot;nofollow&quot; target=&quot;_NEW&quot;&gt;\nhttp://imgsparrow.co/image/47&lt;/a&gt;\n &lt;a href=&quot;\nhttp://imgsparrow.co/image/77&quot; rel=&quot;nofollow&quot; target=&quot;_NEW&quot;&gt;\nhttp://imgsparrow.co/image/77&lt;/a&gt;\n\nInfo : - \n\nAll Credit Goes To Intellect Clever &amp; IcTv\nSample Within Torrent\n\nYear : 2015\nCast : Dinesh Thapa, Sabina Karki, Soniya Sharma, ...\nVideo: AVC\nAudio : AAC\nGenre : Adult-Drama\nSubtitles :nope\nResolution : x\nRuntime : 1hr 55min XX\nSource : Team IcTv \n\nFormat                      : MPEG-4\nFormat profile              : Base Media\nCodec ID                    : isom\nFile size                   : 1.29 GiB\nDuration                    : 1h 55mn\nOverall bit rate            : 1 605 Kbps\nWriting application         : Lavf55.32.101\n\nVideo\nID                          : 1\nFormat                      : AVC\nFormat/Info                 : Advanced Video Codec\nFormat profile              : &lt;a class=&quot;__cf_email__&quot; href=&quot;/cdn-cgi/l/email-protection&quot; data-cfemail=&quot;5518343c3b1519667b64&quot;&gt;[email&amp;#160;protected]&lt;/a&gt;&lt;script data-cfhash='f9e31' type=&quot;text/javascript&quot;&gt;\n/* &lt;![CDATA[ */!function(){try{var t=&quot;currentScript&quot;in document?document.currentScript:function(){for(var t=document.getElementsByTagName(&quot;script&quot;),e=t.length;e--;)if(t[e].getAttribute(&quot;data-cfhash&quot;))return t[e]}();if(t&amp;&amp;t.previousSibling){var e,r,n,i,c=t.previousSibling,a=c.getAttribute(&quot;data-cfemail&quot;);if(a){for(e=&quot;&quot;,r=parseInt(a.substr(0,2),16),n=2;a.length-n;n+=2)i=parseInt(a.substr(n,2),16)^r,e+=String.fromCharCode(i);e=document.createTextNode(e),c.parentNode.replaceChild(e,c)}t.parentNode.removeChild(t);}}catch(u){}}()/* ]]&gt; */&lt;/script&gt;\nFormat settings, CABAC      : Yes\nFormat settings, ReFrames   : 3 frames\nCodec ID                    : avc1\nCodec ID/Info               : Advanced Video Coding\nDuration                    : 1h 55mn\nBit rate                    : 1 348 Kbps\nWidth                       : 1 280 pixels\nHeight                      : 720 pixels\nDisplay aspect ratio        : 16:9\nFrame rate mode             : Constant\nFrame rate                  : 25.000 fps\nColor space                 : YUV\nChroma subsampling          : 4:2:0\nBit depth                   : 8 bits\nScan type                   : Progressive\nBits/(Pixel*Frame)          : 0.058\nStream size                 : 1.09 GiB (84%)\n\nAudio\nID                          : 2\nFormat                      : AAC\nFormat/Info                 : Advanced Audio Codec\nFormat profile              : LC\nCodec ID                    : 40\nDuration                    : 1h 55mn\nBit rate mode               : Constant\nBit rate                    : 254 Kbps\nChannel(s)                  : 2 channels\nChannel positions           : Front: L R\nSampling rate               : 44.1 KHz\nCompression mode            : Lossy\nStream size                 : 209 MiB (16%)\n\nScreens : - \n &lt;a href=&quot;\nhttp://imgsparrow.co/image/7k&quot; rel=&quot;nofollow&quot; target=&quot;_NEW&quot;&gt;\nhttp://imgsparrow.co/image/7k&lt;/a&gt; &lt;a href=&quot;\nhttp://imgsparrow.co/image/7n&quot; rel=&quot;nofollow&quot; target=&quot;_NEW&quot;&gt;\nhttp://imgsparrow.co/image/7n&lt;/a&gt; &lt;a href=&quot;\nhttp://imgsparrow.co/image/7y&quot; rel=&quot;nofollow&quot; target=&quot;_NEW&quot;&gt;\nhttp://imgsparrow.co/image/7y&lt;/a&gt; &lt;a href=&quot;\nhttp://imgsparrow.co/image/75&quot; rel=&quot;nofollow&quot; target=&quot;_NEW&quot;&gt;\nhttp://imgsparrow.co/image/75&lt;/a&gt; &lt;a href=&quot;\nhttp://imgsparrow.co/image/7A&quot; rel=&quot;nofollow&quot; target=&quot;_NEW&quot;&gt;\nhttp://imgsparrow.co/image/7A&lt;/a&gt; &lt;a href=&quot;\nhttp://imgsparrow.co/image/7Q&quot; rel=&quot;nofollow&quot; target=&quot;_NEW&quot;&gt;\nhttp://imgsparrow.co/image/7Q&lt;/a&gt; &lt;a href=&quot;\nhttp://imgsparrow.co/image/7Z&quot; rel=&quot;nofollow&quot; target=&quot;_NEW&quot;&gt;\nhttp://imgsparrow.co/image/7Z&lt;/a&gt; &lt;a href=&quot;\nhttp://imgsparrow.co/image/7a&quot; rel=&quot;nofollow&quot; target=&quot;_NEW&quot;&gt;\nhttp://imgsparrow.co/image/7a&lt;/a&gt; &lt;a href=&quot;\nhttp://imgsparrow.co/image/7f&quot; rel=&quot;nofollow&quot; target=&quot;_NEW&quot;&gt;\nhttp://imgsparrow.co/image/7f&lt;/a&gt; &lt;a href=&quot;\nhttp://imgsparrow.co/image/7I&quot; rel=&quot;nofollow&quot; target=&quot;_NEW&quot;&gt;\nhttp://imgsparrow.co/image/7I&lt;/a&gt;\n &lt;a href=&quot;\nhttp://imgsparrow.co/image/N2&quot; rel=&quot;nofollow&quot; target=&quot;_NEW&quot;&gt;\nhttp://imgsparrow.co/image/N2&lt;/a&gt;","torrent":{"xt":"urn:btih:a9cd0e43ac23d731b58c1da555843f27fef583e3","amp;dn":"Jolly+The+Real+Playboy+%282015%29+720p+WEB+HD+-+AVC+-+AAC+-+Team+IcT","amp;tr":["udp%3A%2F%2Ftracker.openbittorrent.com%3A80","udp%3A%2F%2Fopen.demonii.com%3A1337","udp%3A%2F%2Ftracker.coppersurfer.tk%3A6969","udp%3A%2F%2Fexodus.desync.com%3A6969"],"infoHash":"a9cd0e43ac23d731b58c1da555843f27fef583e3","infoHashBuffer":{"type":"Buffer","data":[169,205,14,67,172,35,215,49,181,140,29,165,85,132,63,39,254,245,131,227]},"announce":[],"urlList":[]}}